<svg xmlns="http://www.w3.org/2000/svg" xmlns:xlink="http://www.w3.org/1999/xlink" width="500" zoomAndPan="magnify" viewBox="0 0 375 374.999991" height="500" preserveAspectRatio="xMidYMid meet" version="1.0"><defs><g/></defs><g fill="#ff00ff" fill-opacity="1"><g transform="translate(4.156671, 208.020322)"><g><path d="M 11.398438 -38.894531 L 27.492188 -38.894531 L 27.492188 -8.046875 L 35.539062 -8.046875 L 35.539062 -38.894531 L 27.492188 -38.894531 L 27.492188 -46.941406 L 3.351562 -46.941406 L 3.351562 0 L 27.492188 0 L 27.492188 -8.046875 L 11.398438 -8.046875 Z M 11.398438 -38.894531 "/></g></g></g><g fill="#ff00ff" fill-opacity="1"><g transform="translate(50.157025, 208.020322)"><g><path d="M 3.351562 -46.941406 L 3.351562 0 L 35.539062 0 L 35.539062 -8.046875 L 11.398438 -8.046875 L 11.398438 -19.445312 L 27.492188 -19.445312 L 27.492188 -27.492188 L 11.398438 -27.492188 L 11.398438 -38.894531 L 35.539062 -38.894531 L 35.539062 -46.941406 Z M 3.351562 -46.941406 "/></g></g></g><g fill="#ff00ff" fill-opacity="1"><g transform="translate(96.22443, 208.020322)"><g><path d="M 19.445312 -8.046875 L 19.445312 -16.09375 L 11.398438 -16.09375 L 11.398438 -46.941406 L 3.351562 -46.941406 L 3.351562 -16.09375 L 11.398438 -16.09375 L 11.398438 -8.046875 L 19.445312 -8.046875 L 19.445312 0 L 27.492188 0 L 27.492188 -8.046875 Z M 35.539062 -46.941406 L 35.539062 -16.09375 L 43.585938 -16.09375 L 43.585938 -46.941406 Z M 27.492188 -16.09375 L 27.492188 -8.046875 L 35.539062 -8.046875 L 35.539062 -16.09375 Z M 27.492188 -16.09375 "/></g></g></g><g fill="#ff00ff" fill-opacity="1"><g transform="translate(150.271347, 208.020322)"><g/></g></g><g fill="#ff00ff" fill-opacity="1"><g transform="translate(180.916174, 208.020322)"><g><path d="M 11.398438 -38.894531 L 27.492188 -38.894531 L 27.492188 -27.492188 L 35.539062 -27.492188 L 35.539062 -38.894531 L 27.492188 -38.894531 L 27.492188 -46.941406 L 3.351562 -46.941406 L 3.351562 0 L 11.398438 0 L 11.398438 -19.445312 L 27.492188 -19.445312 L 27.492188 0 L 35.539062 0 L 35.539062 -19.445312 L 27.492188 -19.445312 L 27.492188 -27.492188 L 11.398438 -27.492188 Z M 11.398438 -38.894531 "/></g></g></g><g fill="#ff00ff" fill-opacity="1"><g transform="translate(226.916521, 208.020322)"><g><path d="M 11.398438 -38.894531 L 27.492188 -38.894531 L 27.492188 -8.046875 L 35.539062 -8.046875 L 35.539062 -38.894531 L 27.492188 -38.894531 L 27.492188 -46.941406 L 11.398438 -46.941406 Z M 11.398438 -38.894531 L 3.351562 -38.894531 L 3.351562 -8.046875 L 11.398438 -8.046875 L 11.398438 0 L 27.492188 0 L 27.492188 -8.046875 L 11.398438 -8.046875 Z M 11.398438 -38.894531 "/></g></g></g><g fill="#ff00ff" fill-opacity="1"><g transform="translate(272.916869, 208.020322)"><g><path d="M 11.398438 -38.894531 L 27.492188 -38.894531 L 27.492188 -8.046875 L 35.539062 -8.046875 L 35.539062 -38.894531 L 27.492188 -38.894531 L 27.492188 -46.941406 L 11.398438 -46.941406 Z M 11.398438 -38.894531 L 3.351562 -38.894531 L 3.351562 -8.046875 L 11.398438 -8.046875 L 11.398438 0 L 27.492188 0 L 27.492188 -8.046875 L 11.398438 -8.046875 Z M 11.398438 -38.894531 "/></g></g></g><g fill="#ff00ff" fill-opacity="1"><g transform="translate(318.917217, 208.020322)"><g><path d="M 3.351562 -46.941406 L 3.351562 0 L 11.398438 0 L 11.398438 -30.847656 L 19.445312 -30.847656 L 19.445312 -22.800781 L 27.492188 -22.800781 L 27.492188 -30.847656 L 19.445312 -30.847656 L 19.445312 -38.894531 L 11.398438 -38.894531 L 11.398438 -46.941406 Z M 35.539062 -30.847656 L 35.539062 0 L 43.585938 0 L 43.585938 -46.941406 L 35.539062 -46.941406 L 35.539062 -38.894531 L 27.492188 -38.894531 L 27.492188 -30.847656 Z M 35.539062 -30.847656 "/></g></g></g><g fill="#00ffff" fill-opacity="1"><g transform="translate(9.199634, 209.277687)"><g><path d="M 11.398438 -38.894531 L 27.492188 -38.894531 L 27.492188 -8.046875 L 35.539062 -8.046875 L 35.539062 -38.894531 L 27.492188 -38.894531 L 27.492188 -46.941406 L 3.351562 -46.941406 L 3.351562 0 L 27.492188 0 L 27.492188 -8.046875 L 11.398438 -8.046875 Z M 11.398438 -38.894531 "/></g></g></g><g fill="#00ffff" fill-opacity="1"><g transform="translate(55.199987, 209.277687)"><g><path d="M 3.351562 -46.941406 L 3.351562 0 L 35.539062 0 L 35.539062 -8.046875 L 11.398438 -8.046875 L 11.398438 -19.445312 L 27.492188 -19.445312 L 27.492188 -27.492188 L 11.398438 -27.492188 L 11.398438 -38.894531 L 35.539062 -38.894531 L 35.539062 -46.941406 Z M 3.351562 -46.941406 "/></g></g></g><g fill="#00ffff" fill-opacity="1"><g transform="translate(101.267392, 209.277687)"><g><path d="M 19.445312 -8.046875 L 19.445312 -16.09375 L 11.398438 -16.09375 L 11.398438 -46.941406 L 3.351562 -46.941406 L 3.351562 -16.09375 L 11.398438 -16.09375 L 11.398438 -8.046875 L 19.445312 -8.046875 L 19.445312 0 L 27.492188 0 L 27.492188 -8.046875 Z M 35.539062 -46.941406 L 35.539062 -16.09375 L 43.585938 -16.09375 L 43.585938 -46.941406 Z M 27.492188 -16.09375 L 27.492188 -8.046875 L 35.539062 -8.046875 L 35.539062 -16.09375 Z M 27.492188 -16.09375 "/></g></g></g><g fill="#00ffff" fill-opacity="1"><g transform="translate(155.314309, 209.277687)"><g/></g></g><g fill="#00ffff" fill-opacity="1"><g transform="translate(185.959136, 209.277687)"><g><path d="M 11.398438 -38.894531 L 27.492188 -38.894531 L 27.492188 -27.492188 L 35.539062 -27.492188 L 35.539062 -38.894531 L 27.492188 -38.894531 L 27.492188 -46.941406 L 3.351562 -46.941406 L 3.351562 0 L 11.398438 0 L 11.398438 -19.445312 L 27.492188 -19.445312 L 27.492188 0 L 35.539062 0 L 35.539062 -19.445312 L 27.492188 -19.445312 L 27.492188 -27.492188 L 11.398438 -27.492188 Z M 11.398438 -38.894531 "/></g></g></g><g fill="#00ffff" fill-opacity="1"><g transform="translate(231.959484, 209.277687)"><g><path d="M 11.398438 -38.894531 L 27.492188 -38.894531 L 27.492188 -8.046875 L 35.539062 -8.046875 L 35.539062 -38.894531 L 27.492188 -38.894531 L 27.492188 -46.941406 L 11.398438 -46.941406 Z M 11.398438 -38.894531 L 3.351562 -38.894531 L 3.351562 -8.046875 L 11.398438 -8.046875 L 11.398438 0 L 27.492188 0 L 27.492188 -8.046875 L 11.398438 -8.046875 Z M 11.398438 -38.894531 "/></g></g></g><g fill="#00ffff" fill-opacity="1"><g transform="translate(277.959832, 209.277687)"><g><path d="M 11.398438 -38.894531 L 27.492188 -38.894531 L 27.492188 -8.046875 L 35.539062 -8.046875 L 35.539062 -38.894531 L 27.492188 -38.894531 L 27.492188 -46.941406 L 11.398438 -46.941406 Z M 11.398438 -38.894531 L 3.351562 -38.894531 L 3.351562 -8.046875 L 11.398438 -8.046875 L 11.398438 0 L 27.492188 0 L 27.492188 -8.046875 L 11.398438 -8.046875 Z M 11.398438 -38.894531 "/></g></g></g><g fill="#00ffff" fill-opacity="1"><g transform="translate(323.960179, 209.277687)"><g><path d="M 3.351562 -46.941406 L 3.351562 0 L 11.398438 0 L 11.398438 -30.847656 L 19.445312 -30.847656 L 19.445312 -22.800781 L 27.492188 -22.800781 L 27.492188 -30.847656 L 19.445312 -30.847656 L 19.445312 -38.894531 L 11.398438 -38.894531 L 11.398438 -46.941406 Z M 35.539062 -30.847656 L 35.539062 0 L 43.585938 0 L 43.585938 -46.941406 L 35.539062 -46.941406 L 35.539062 -38.894531 L 27.492188 -38.894531 L 27.492188 -30.847656 Z M 35.539062 -30.847656 "/></g></g></g><g fill="#000000" fill-opacity="1"><g transform="translate(6.678153, 208.649005)"><g><path d="M 11.398438 -38.894531 L 27.492188 -38.894531 L 27.492188 -8.046875 L 35.539062 -8.046875 L 35.539062 -38.894531 L 27.492188 -38.894531 L 27.492188 -46.941406 L 3.351562 -46.941406 L 3.351562 0 L 27.492188 0 L 27.492188 -8.046875 L 11.398438 -8.046875 Z M 11.398438 -38.894531 "/></g></g></g><g fill="#000000" fill-opacity="1"><g transform="translate(52.678506, 208.649005)"><g><path d="M 3.351562 -46.941406 L 3.351562 0 L 35.539062 0 L 35.539062 -8.046875 L 11.398438 -8.046875 L 11.398438 -19.445312 L 27.492188 -19.445312 L 27.492188 -27.492188 L 11.398438 -27.492188 L 11.398438 -38.894531 L 35.539062 -38.894531 L 35.539062 -46.941406 Z M 3.351562 -46.941406 "/></g></g></g><g fill="#000000" fill-opacity="1"><g transform="translate(98.745911, 208.649005)"><g><path d="M 19.445312 -8.046875 L 19.445312 -16.09375 L 11.398438 -16.09375 L 11.398438 -46.941406 L 3.351562 -46.941406 L 3.351562 -16.09375 L 11.398438 -16.09375 L 11.398438 -8.046875 L 19.445312 -8.046875 L 19.445312 0 L 27.492188 0 L 27.492188 -8.046875 Z M 35.539062 -46.941406 L 35.539062 -16.09375 L 43.585938 -16.09375 L 43.585938 -46.941406 Z M 27.492188 -16.09375 L 27.492188 -8.046875 L 35.539062 -8.046875 L 35.539062 -16.09375 Z M 27.492188 -16.09375 "/></g></g></g><g fill="#000000" fill-opacity="1"><g transform="translate(152.792828, 208.649005)"><g/></g></g><g fill="#000000" fill-opacity="1"><g transform="translate(183.437655, 208.649005)"><g><path d="M 11.398438 -38.894531 L 27.492188 -38.894531 L 27.492188 -27.492188 L 35.539062 -27.492188 L 35.539062 -38.894531 L 27.492188 -38.894531 L 27.492188 -46.941406 L 3.351562 -46.941406 L 3.351562 0 L 11.398438 0 L 11.398438 -19.445312 L 27.492188 -19.445312 L 27.492188 0 L 35.539062 0 L 35.539062 -19.445312 L 27.492188 -19.445312 L 27.492188 -27.492188 L 11.398438 -27.492188 Z M 11.398438 -38.894531 "/></g></g></g><g fill="#000000" fill-opacity="1"><g transform="translate(229.438003, 208.649005)"><g><path d="M 11.398438 -38.894531 L 27.492188 -38.894531 L 27.492188 -8.046875 L 35.539062 -8.046875 L 35.539062 -38.894531 L 27.492188 -38.894531 L 27.492188 -46.941406 L 11.398438 -46.941406 Z M 11.398438 -38.894531 L 3.351562 -38.894531 L 3.351562 -8.046875 L 11.398438 -8.046875 L 11.398438 0 L 27.492188 0 L 27.492188 -8.046875 L 11.398438 -8.046875 Z M 11.398438 -38.894531 "/></g></g></g><g fill="#000000" fill-opacity="1"><g transform="translate(275.43835, 208.649005)"><g><path d="M 11.398438 -38.894531 L 27.492188 -38.894531 L 27.492188 -8.046875 L 35.539062 -8.046875 L 35.539062 -38.894531 L 27.492188 -38.894531 L 27.492188 -46.941406 L 11.398438 -46.941406 Z M 11.398438 -38.894531 L 3.351562 -38.894531 L 3.351562 -8.046875 L 11.398438 -8.046875 L 11.398438 0 L 27.492188 0 L 27.492188 -8.046875 L 11.398438 -8.046875 Z M 11.398438 -38.894531 "/></g></g></g><g fill="#000000" fill-opacity="1"><g transform="translate(321.438698, 208.649005)"><g><path d="M 3.351562 -46.941406 L 3.351562 0 L 11.398438 0 L 11.398438 -30.847656 L 19.445312 -30.847656 L 19.445312 -22.800781 L 27.492188 -22.800781 L 27.492188 -30.847656 L 19.445312 -30.847656 L 19.445312 -38.894531 L 11.398438 -38.894531 L 11.398438 -46.941406 Z M 35.539062 -30.847656 L 35.539062 0 L 43.585938 0 L 43.585938 -46.941406 L 35.539062 -46.941406 L 35.539062 -38.894531 L 27.492188 -38.894531 L 27.492188 -30.847656 Z M 35.539062 -30.847656 "/></g></g></g></svg>