<svg xmlns="http://www.w3.org/2000/svg" xmlns:xlink="http://www.w3.org/1999/xlink" width="500" zoomAndPan="magnify" viewBox="0 0 375 374.999991" height="500" preserveAspectRatio="xMidYMid meet" version="1.0"><defs><g/></defs><g fill="#ff00ff" fill-opacity="1"><g transform="translate(70.676998, 160.803352)"><g><path d="M 18.5 -63.113281 L 44.613281 -63.113281 L 44.613281 -13.058594 L 57.671875 -13.058594 L 57.671875 -63.113281 L 44.613281 -63.113281 L 44.613281 -76.171875 L 5.441406 -76.171875 L 5.441406 0 L 44.613281 0 L 44.613281 -13.058594 L 18.5 -13.058594 Z M 18.5 -63.113281 "/></g></g></g><g fill="#ff00ff" fill-opacity="1"><g transform="translate(145.321316, 160.803352)"><g><path d="M 5.441406 -76.171875 L 5.441406 0 L 57.671875 0 L 57.671875 -13.058594 L 18.5 -13.058594 L 18.5 -31.558594 L 44.613281 -31.558594 L 44.613281 -44.613281 L 18.5 -44.613281 L 18.5 -63.113281 L 57.671875 -63.113281 L 57.671875 -76.171875 Z M 5.441406 -76.171875 "/></g></g></g><g fill="#ff00ff" fill-opacity="1"><g transform="translate(220.074433, 160.803352)"><g><path d="M 31.558594 -13.058594 L 31.558594 -26.117188 L 18.5 -26.117188 L 18.5 -76.171875 L 5.441406 -76.171875 L 5.441406 -26.117188 L 18.5 -26.117188 L 18.5 -13.058594 L 31.558594 -13.058594 L 31.558594 0 L 44.613281 0 L 44.613281 -13.058594 Z M 57.671875 -76.171875 L 57.671875 -26.117188 L 70.730469 -26.117188 L 70.730469 -76.171875 Z M 44.613281 -26.117188 L 44.613281 -13.058594 L 57.671875 -13.058594 L 57.671875 -26.117188 Z M 44.613281 -26.117188 "/></g></g></g><g fill="#00ffff" fill-opacity="1"><g transform="translate(78.860301, 162.843681)"><g><path d="M 18.5 -63.113281 L 44.613281 -63.113281 L 44.613281 -13.058594 L 57.671875 -13.058594 L 57.671875 -63.113281 L 44.613281 -63.113281 L 44.613281 -76.171875 L 5.441406 -76.171875 L 5.441406 0 L 44.613281 0 L 44.613281 -13.058594 L 18.5 -13.058594 Z M 18.5 -63.113281 "/></g></g></g><g fill="#00ffff" fill-opacity="1"><g transform="translate(153.504619, 162.843681)"><g><path d="M 5.441406 -76.171875 L 5.441406 0 L 57.671875 0 L 57.671875 -13.058594 L 18.5 -13.058594 L 18.5 -31.558594 L 44.613281 -31.558594 L 44.613281 -44.613281 L 18.5 -44.613281 L 18.5 -63.113281 L 57.671875 -63.113281 L 57.671875 -76.171875 Z M 5.441406 -76.171875 "/></g></g></g><g fill="#00ffff" fill-opacity="1"><g transform="translate(228.257737, 162.843681)"><g><path d="M 31.558594 -13.058594 L 31.558594 -26.117188 L 18.5 -26.117188 L 18.5 -76.171875 L 5.441406 -76.171875 L 5.441406 -26.117188 L 18.5 -26.117188 L 18.5 -13.058594 L 31.558594 -13.058594 L 31.558594 0 L 44.613281 0 L 44.613281 -13.058594 Z M 57.671875 -76.171875 L 57.671875 -26.117188 L 70.730469 -26.117188 L 70.730469 -76.171875 Z M 44.613281 -26.117188 L 44.613281 -13.058594 L 57.671875 -13.058594 L 57.671875 -26.117188 Z M 44.613281 -26.117188 "/></g></g></g><g fill="#ffffff" fill-opacity="1"><g transform="translate(74.768649, 161.823515)"><g><path d="M 18.5 -63.113281 L 44.613281 -63.113281 L 44.613281 -13.058594 L 57.671875 -13.058594 L 57.671875 -63.113281 L 44.613281 -63.113281 L 44.613281 -76.171875 L 5.441406 -76.171875 L 5.441406 0 L 44.613281 0 L 44.613281 -13.058594 L 18.5 -13.058594 Z M 18.5 -63.113281 "/></g></g></g><g fill="#ffffff" fill-opacity="1"><g transform="translate(149.412968, 161.823515)"><g><path d="M 5.441406 -76.171875 L 5.441406 0 L 57.671875 0 L 57.671875 -13.058594 L 18.5 -13.058594 L 18.5 -31.558594 L 44.613281 -31.558594 L 44.613281 -44.613281 L 18.5 -44.613281 L 18.5 -63.113281 L 57.671875 -63.113281 L 57.671875 -76.171875 Z M 5.441406 -76.171875 "/></g></g></g><g fill="#ffffff" fill-opacity="1"><g transform="translate(224.166085, 161.823515)"><g><path d="M 31.558594 -13.058594 L 31.558594 -26.117188 L 18.5 -26.117188 L 18.5 -76.171875 L 5.441406 -76.171875 L 5.441406 -26.117188 L 18.5 -26.117188 L 18.5 -13.058594 L 31.558594 -13.058594 L 31.558594 0 L 44.613281 0 L 44.613281 -13.058594 Z M 57.671875 -76.171875 L 57.671875 -26.117188 L 70.730469 -26.117188 L 70.730469 -76.171875 Z M 44.613281 -26.117188 L 44.613281 -13.058594 L 57.671875 -13.058594 L 57.671875 -26.117188 Z M 44.613281 -26.117188 "/></g></g></g><g fill="#ff00ff" fill-opacity="1"><g transform="translate(32.09149, 258.403341)"><g><path d="M 18.5 -63.113281 L 44.613281 -63.113281 L 44.613281 -44.613281 L 57.671875 -44.613281 L 57.671875 -63.113281 L 44.613281 -63.113281 L 44.613281 -76.171875 L 5.441406 -76.171875 L 5.441406 0 L 18.5 0 L 18.5 -31.558594 L 44.613281 -31.558594 L 44.613281 0 L 57.671875 0 L 57.671875 -31.558594 L 44.613281 -31.558594 L 44.613281 -44.613281 L 18.5 -44.613281 Z M 18.5 -63.113281 "/></g></g></g><g fill="#ff00ff" fill-opacity="1"><g transform="translate(106.735809, 258.403341)"><g><path d="M 18.5 -63.113281 L 44.613281 -63.113281 L 44.613281 -13.058594 L 57.671875 -13.058594 L 57.671875 -63.113281 L 44.613281 -63.113281 L 44.613281 -76.171875 L 18.5 -76.171875 Z M 18.5 -63.113281 L 5.441406 -63.113281 L 5.441406 -13.058594 L 18.5 -13.058594 L 18.5 0 L 44.613281 0 L 44.613281 -13.058594 L 18.5 -13.058594 Z M 18.5 -63.113281 "/></g></g></g><g fill="#ff00ff" fill-opacity="1"><g transform="translate(181.380127, 258.403341)"><g><path d="M 18.5 -63.113281 L 44.613281 -63.113281 L 44.613281 -13.058594 L 57.671875 -13.058594 L 57.671875 -63.113281 L 44.613281 -63.113281 L 44.613281 -76.171875 L 18.5 -76.171875 Z M 18.5 -63.113281 L 5.441406 -63.113281 L 5.441406 -13.058594 L 18.5 -13.058594 L 18.5 0 L 44.613281 0 L 44.613281 -13.058594 L 18.5 -13.058594 Z M 18.5 -63.113281 "/></g></g></g><g fill="#ff00ff" fill-opacity="1"><g transform="translate(256.024451, 258.403341)"><g><path d="M 5.441406 -76.171875 L 5.441406 0 L 18.5 0 L 18.5 -50.054688 L 31.558594 -50.054688 L 31.558594 -36.996094 L 44.613281 -36.996094 L 44.613281 -50.054688 L 31.558594 -50.054688 L 31.558594 -63.113281 L 18.5 -63.113281 L 18.5 -76.171875 Z M 57.671875 -50.054688 L 57.671875 0 L 70.730469 0 L 70.730469 -76.171875 L 57.671875 -76.171875 L 57.671875 -63.113281 L 44.613281 -63.113281 L 44.613281 -50.054688 Z M 57.671875 -50.054688 "/></g></g></g><g fill="#00ffff" fill-opacity="1"><g transform="translate(42.914563, 261.101848)"><g><path d="M 18.5 -63.113281 L 44.613281 -63.113281 L 44.613281 -44.613281 L 57.671875 -44.613281 L 57.671875 -63.113281 L 44.613281 -63.113281 L 44.613281 -76.171875 L 5.441406 -76.171875 L 5.441406 0 L 18.5 0 L 18.5 -31.558594 L 44.613281 -31.558594 L 44.613281 0 L 57.671875 0 L 57.671875 -31.558594 L 44.613281 -31.558594 L 44.613281 -44.613281 L 18.5 -44.613281 Z M 18.5 -63.113281 "/></g></g></g><g fill="#00ffff" fill-opacity="1"><g transform="translate(117.558881, 261.101848)"><g><path d="M 18.5 -63.113281 L 44.613281 -63.113281 L 44.613281 -13.058594 L 57.671875 -13.058594 L 57.671875 -63.113281 L 44.613281 -63.113281 L 44.613281 -76.171875 L 18.5 -76.171875 Z M 18.5 -63.113281 L 5.441406 -63.113281 L 5.441406 -13.058594 L 18.5 -13.058594 L 18.5 0 L 44.613281 0 L 44.613281 -13.058594 L 18.5 -13.058594 Z M 18.5 -63.113281 "/></g></g></g><g fill="#00ffff" fill-opacity="1"><g transform="translate(192.2032, 261.101848)"><g><path d="M 18.5 -63.113281 L 44.613281 -63.113281 L 44.613281 -13.058594 L 57.671875 -13.058594 L 57.671875 -63.113281 L 44.613281 -63.113281 L 44.613281 -76.171875 L 18.5 -76.171875 Z M 18.5 -63.113281 L 5.441406 -63.113281 L 5.441406 -13.058594 L 18.5 -13.058594 L 18.5 0 L 44.613281 0 L 44.613281 -13.058594 L 18.5 -13.058594 Z M 18.5 -63.113281 "/></g></g></g><g fill="#00ffff" fill-opacity="1"><g transform="translate(266.847524, 261.101848)"><g><path d="M 5.441406 -76.171875 L 5.441406 0 L 18.5 0 L 18.5 -50.054688 L 31.558594 -50.054688 L 31.558594 -36.996094 L 44.613281 -36.996094 L 44.613281 -50.054688 L 31.558594 -50.054688 L 31.558594 -63.113281 L 18.5 -63.113281 L 18.5 -76.171875 Z M 57.671875 -50.054688 L 57.671875 0 L 70.730469 0 L 70.730469 -76.171875 L 57.671875 -76.171875 L 57.671875 -63.113281 L 44.613281 -63.113281 L 44.613281 -50.054688 Z M 57.671875 -50.054688 "/></g></g></g><g fill="#ffffff" fill-opacity="1"><g transform="translate(37.503027, 259.752595)"><g><path d="M 18.5 -63.113281 L 44.613281 -63.113281 L 44.613281 -44.613281 L 57.671875 -44.613281 L 57.671875 -63.113281 L 44.613281 -63.113281 L 44.613281 -76.171875 L 5.441406 -76.171875 L 5.441406 0 L 18.5 0 L 18.5 -31.558594 L 44.613281 -31.558594 L 44.613281 0 L 57.671875 0 L 57.671875 -31.558594 L 44.613281 -31.558594 L 44.613281 -44.613281 L 18.5 -44.613281 Z M 18.5 -63.113281 "/></g></g></g><g fill="#ffffff" fill-opacity="1"><g transform="translate(112.147345, 259.752595)"><g><path d="M 18.5 -63.113281 L 44.613281 -63.113281 L 44.613281 -13.058594 L 57.671875 -13.058594 L 57.671875 -63.113281 L 44.613281 -63.113281 L 44.613281 -76.171875 L 18.5 -76.171875 Z M 18.5 -63.113281 L 5.441406 -63.113281 L 5.441406 -13.058594 L 18.5 -13.058594 L 18.5 0 L 44.613281 0 L 44.613281 -13.058594 L 18.5 -13.058594 Z M 18.5 -63.113281 "/></g></g></g><g fill="#ffffff" fill-opacity="1"><g transform="translate(186.791663, 259.752595)"><g><path d="M 18.5 -63.113281 L 44.613281 -63.113281 L 44.613281 -13.058594 L 57.671875 -13.058594 L 57.671875 -63.113281 L 44.613281 -63.113281 L 44.613281 -76.171875 L 18.5 -76.171875 Z M 18.5 -63.113281 L 5.441406 -63.113281 L 5.441406 -13.058594 L 18.5 -13.058594 L 18.5 0 L 44.613281 0 L 44.613281 -13.058594 L 18.5 -13.058594 Z M 18.5 -63.113281 "/></g></g></g><g fill="#ffffff" fill-opacity="1"><g transform="translate(261.435987, 259.752595)"><g><path d="M 5.441406 -76.171875 L 5.441406 0 L 18.5 0 L 18.5 -50.054688 L 31.558594 -50.054688 L 31.558594 -36.996094 L 44.613281 -36.996094 L 44.613281 -50.054688 L 31.558594 -50.054688 L 31.558594 -63.113281 L 18.5 -63.113281 L 18.5 -76.171875 Z M 57.671875 -50.054688 L 57.671875 0 L 70.730469 0 L 70.730469 -76.171875 L 57.671875 -76.171875 L 57.671875 -63.113281 L 44.613281 -63.113281 L 44.613281 -50.054688 Z M 57.671875 -50.054688 "/></g></g></g></svg>