<svg xmlns="http://www.w3.org/2000/svg" xmlns:xlink="http://www.w3.org/1999/xlink" width="500" zoomAndPan="magnify" viewBox="0 0 375 374.999991" height="500" preserveAspectRatio="xMidYMid meet" version="1.0"><defs><g/></defs><g fill="#ff00ff" fill-opacity="1"><g transform="translate(112.283354, 185.935262)"><g><path d="M 11.910156 -40.632812 L 28.722656 -40.632812 L 28.722656 -8.40625 L 37.132812 -8.40625 L 37.132812 -40.632812 L 28.722656 -40.632812 L 28.722656 -49.042969 L 3.503906 -49.042969 L 3.503906 0 L 28.722656 0 L 28.722656 -8.40625 L 11.910156 -8.40625 Z M 11.910156 -40.632812 "/></g></g></g><g fill="#ff00ff" fill-opacity="1"><g transform="translate(160.340884, 185.935262)"><g><path d="M 3.503906 -49.042969 L 3.503906 0 L 37.132812 0 L 37.132812 -8.40625 L 11.910156 -8.40625 L 11.910156 -20.316406 L 28.722656 -20.316406 L 28.722656 -28.722656 L 11.910156 -28.722656 L 11.910156 -40.632812 L 37.132812 -40.632812 L 37.132812 -49.042969 Z M 3.503906 -49.042969 "/></g></g></g><g fill="#ff00ff" fill-opacity="1"><g transform="translate(208.468467, 185.935262)"><g><path d="M 20.316406 -8.40625 L 20.316406 -16.8125 L 11.910156 -16.8125 L 11.910156 -49.042969 L 3.503906 -49.042969 L 3.503906 -16.8125 L 11.910156 -16.8125 L 11.910156 -8.40625 L 20.316406 -8.40625 L 20.316406 0 L 28.722656 0 L 28.722656 -8.40625 Z M 37.132812 -49.042969 L 37.132812 -16.8125 L 45.539062 -16.8125 L 45.539062 -49.042969 Z M 28.722656 -16.8125 L 28.722656 -8.40625 L 37.132812 -8.40625 L 37.132812 -16.8125 Z M 28.722656 -16.8125 "/></g></g></g><g fill="#00ffff" fill-opacity="1"><g transform="translate(117.55192, 187.248858)"><g><path d="M 11.910156 -40.632812 L 28.722656 -40.632812 L 28.722656 -8.40625 L 37.132812 -8.40625 L 37.132812 -40.632812 L 28.722656 -40.632812 L 28.722656 -49.042969 L 3.503906 -49.042969 L 3.503906 0 L 28.722656 0 L 28.722656 -8.40625 L 11.910156 -8.40625 Z M 11.910156 -40.632812 "/></g></g></g><g fill="#00ffff" fill-opacity="1"><g transform="translate(165.609449, 187.248858)"><g><path d="M 3.503906 -49.042969 L 3.503906 0 L 37.132812 0 L 37.132812 -8.40625 L 11.910156 -8.40625 L 11.910156 -20.316406 L 28.722656 -20.316406 L 28.722656 -28.722656 L 11.910156 -28.722656 L 11.910156 -40.632812 L 37.132812 -40.632812 L 37.132812 -49.042969 Z M 3.503906 -49.042969 "/></g></g></g><g fill="#00ffff" fill-opacity="1"><g transform="translate(213.737032, 187.248858)"><g><path d="M 20.316406 -8.40625 L 20.316406 -16.8125 L 11.910156 -16.8125 L 11.910156 -49.042969 L 3.503906 -49.042969 L 3.503906 -16.8125 L 11.910156 -16.8125 L 11.910156 -8.40625 L 20.316406 -8.40625 L 20.316406 0 L 28.722656 0 L 28.722656 -8.40625 Z M 37.132812 -49.042969 L 37.132812 -16.8125 L 45.539062 -16.8125 L 45.539062 -49.042969 Z M 28.722656 -16.8125 L 28.722656 -8.40625 L 37.132812 -8.40625 L 37.132812 -16.8125 Z M 28.722656 -16.8125 "/></g></g></g><g fill="#3b1b72" fill-opacity="1"><g transform="translate(114.917637, 186.59206)"><g><path d="M 11.910156 -40.632812 L 28.722656 -40.632812 L 28.722656 -8.40625 L 37.132812 -8.40625 L 37.132812 -40.632812 L 28.722656 -40.632812 L 28.722656 -49.042969 L 3.503906 -49.042969 L 3.503906 0 L 28.722656 0 L 28.722656 -8.40625 L 11.910156 -8.40625 Z M 11.910156 -40.632812 "/></g></g></g><g fill="#3b1b72" fill-opacity="1"><g transform="translate(162.975166, 186.59206)"><g><path d="M 3.503906 -49.042969 L 3.503906 0 L 37.132812 0 L 37.132812 -8.40625 L 11.910156 -8.40625 L 11.910156 -20.316406 L 28.722656 -20.316406 L 28.722656 -28.722656 L 11.910156 -28.722656 L 11.910156 -40.632812 L 37.132812 -40.632812 L 37.132812 -49.042969 Z M 3.503906 -49.042969 "/></g></g></g><g fill="#3b1b72" fill-opacity="1"><g transform="translate(211.102749, 186.59206)"><g><path d="M 20.316406 -8.40625 L 20.316406 -16.8125 L 11.910156 -16.8125 L 11.910156 -49.042969 L 3.503906 -49.042969 L 3.503906 -16.8125 L 11.910156 -16.8125 L 11.910156 -8.40625 L 20.316406 -8.40625 L 20.316406 0 L 28.722656 0 L 28.722656 -8.40625 Z M 37.132812 -49.042969 L 37.132812 -16.8125 L 45.539062 -16.8125 L 45.539062 -49.042969 Z M 28.722656 -16.8125 L 28.722656 -8.40625 L 37.132812 -8.40625 L 37.132812 -16.8125 Z M 28.722656 -16.8125 "/></g></g></g><g fill="#ff00ff" fill-opacity="1"><g transform="translate(87.440739, 248.771942)"><g><path d="M 11.910156 -40.632812 L 28.722656 -40.632812 L 28.722656 -28.722656 L 37.132812 -28.722656 L 37.132812 -40.632812 L 28.722656 -40.632812 L 28.722656 -49.042969 L 3.503906 -49.042969 L 3.503906 0 L 11.910156 0 L 11.910156 -20.316406 L 28.722656 -20.316406 L 28.722656 0 L 37.132812 0 L 37.132812 -20.316406 L 28.722656 -20.316406 L 28.722656 -28.722656 L 11.910156 -28.722656 Z M 11.910156 -40.632812 "/></g></g></g><g fill="#ff00ff" fill-opacity="1"><g transform="translate(135.498269, 248.771942)"><g><path d="M 11.910156 -40.632812 L 28.722656 -40.632812 L 28.722656 -8.40625 L 37.132812 -8.40625 L 37.132812 -40.632812 L 28.722656 -40.632812 L 28.722656 -49.042969 L 11.910156 -49.042969 Z M 11.910156 -40.632812 L 3.503906 -40.632812 L 3.503906 -8.40625 L 11.910156 -8.40625 L 11.910156 0 L 28.722656 0 L 28.722656 -8.40625 L 11.910156 -8.40625 Z M 11.910156 -40.632812 "/></g></g></g><g fill="#ff00ff" fill-opacity="1"><g transform="translate(183.555798, 248.771942)"><g><path d="M 11.910156 -40.632812 L 28.722656 -40.632812 L 28.722656 -8.40625 L 37.132812 -8.40625 L 37.132812 -40.632812 L 28.722656 -40.632812 L 28.722656 -49.042969 L 11.910156 -49.042969 Z M 11.910156 -40.632812 L 3.503906 -40.632812 L 3.503906 -8.40625 L 11.910156 -8.40625 L 11.910156 0 L 28.722656 0 L 28.722656 -8.40625 L 11.910156 -8.40625 Z M 11.910156 -40.632812 "/></g></g></g><g fill="#ff00ff" fill-opacity="1"><g transform="translate(231.613333, 248.771942)"><g><path d="M 3.503906 -49.042969 L 3.503906 0 L 11.910156 0 L 11.910156 -32.226562 L 20.316406 -32.226562 L 20.316406 -23.820312 L 28.722656 -23.820312 L 28.722656 -32.226562 L 20.316406 -32.226562 L 20.316406 -40.632812 L 11.910156 -40.632812 L 11.910156 -49.042969 Z M 37.132812 -32.226562 L 37.132812 0 L 45.539062 0 L 45.539062 -49.042969 L 37.132812 -49.042969 L 37.132812 -40.632812 L 28.722656 -40.632812 L 28.722656 -32.226562 Z M 37.132812 -32.226562 "/></g></g></g><g fill="#00ffff" fill-opacity="1"><g transform="translate(94.408839, 250.509276)"><g><path d="M 11.910156 -40.632812 L 28.722656 -40.632812 L 28.722656 -28.722656 L 37.132812 -28.722656 L 37.132812 -40.632812 L 28.722656 -40.632812 L 28.722656 -49.042969 L 3.503906 -49.042969 L 3.503906 0 L 11.910156 0 L 11.910156 -20.316406 L 28.722656 -20.316406 L 28.722656 0 L 37.132812 0 L 37.132812 -20.316406 L 28.722656 -20.316406 L 28.722656 -28.722656 L 11.910156 -28.722656 Z M 11.910156 -40.632812 "/></g></g></g><g fill="#00ffff" fill-opacity="1"><g transform="translate(142.466369, 250.509276)"><g><path d="M 11.910156 -40.632812 L 28.722656 -40.632812 L 28.722656 -8.40625 L 37.132812 -8.40625 L 37.132812 -40.632812 L 28.722656 -40.632812 L 28.722656 -49.042969 L 11.910156 -49.042969 Z M 11.910156 -40.632812 L 3.503906 -40.632812 L 3.503906 -8.40625 L 11.910156 -8.40625 L 11.910156 0 L 28.722656 0 L 28.722656 -8.40625 L 11.910156 -8.40625 Z M 11.910156 -40.632812 "/></g></g></g><g fill="#00ffff" fill-opacity="1"><g transform="translate(190.523899, 250.509276)"><g><path d="M 11.910156 -40.632812 L 28.722656 -40.632812 L 28.722656 -8.40625 L 37.132812 -8.40625 L 37.132812 -40.632812 L 28.722656 -40.632812 L 28.722656 -49.042969 L 11.910156 -49.042969 Z M 11.910156 -40.632812 L 3.503906 -40.632812 L 3.503906 -8.40625 L 11.910156 -8.40625 L 11.910156 0 L 28.722656 0 L 28.722656 -8.40625 L 11.910156 -8.40625 Z M 11.910156 -40.632812 "/></g></g></g><g fill="#00ffff" fill-opacity="1"><g transform="translate(238.581433, 250.509276)"><g><path d="M 3.503906 -49.042969 L 3.503906 0 L 11.910156 0 L 11.910156 -32.226562 L 20.316406 -32.226562 L 20.316406 -23.820312 L 28.722656 -23.820312 L 28.722656 -32.226562 L 20.316406 -32.226562 L 20.316406 -40.632812 L 11.910156 -40.632812 L 11.910156 -49.042969 Z M 37.132812 -32.226562 L 37.132812 0 L 45.539062 0 L 45.539062 -49.042969 L 37.132812 -49.042969 L 37.132812 -40.632812 L 28.722656 -40.632812 L 28.722656 -32.226562 Z M 37.132812 -32.226562 "/></g></g></g><g fill="#3b1b72" fill-opacity="1"><g transform="translate(90.924788, 249.640608)"><g><path d="M 11.910156 -40.632812 L 28.722656 -40.632812 L 28.722656 -28.722656 L 37.132812 -28.722656 L 37.132812 -40.632812 L 28.722656 -40.632812 L 28.722656 -49.042969 L 3.503906 -49.042969 L 3.503906 0 L 11.910156 0 L 11.910156 -20.316406 L 28.722656 -20.316406 L 28.722656 0 L 37.132812 0 L 37.132812 -20.316406 L 28.722656 -20.316406 L 28.722656 -28.722656 L 11.910156 -28.722656 Z M 11.910156 -40.632812 "/></g></g></g><g fill="#3b1b72" fill-opacity="1"><g transform="translate(138.982318, 249.640608)"><g><path d="M 11.910156 -40.632812 L 28.722656 -40.632812 L 28.722656 -8.40625 L 37.132812 -8.40625 L 37.132812 -40.632812 L 28.722656 -40.632812 L 28.722656 -49.042969 L 11.910156 -49.042969 Z M 11.910156 -40.632812 L 3.503906 -40.632812 L 3.503906 -8.40625 L 11.910156 -8.40625 L 11.910156 0 L 28.722656 0 L 28.722656 -8.40625 L 11.910156 -8.40625 Z M 11.910156 -40.632812 "/></g></g></g><g fill="#3b1b72" fill-opacity="1"><g transform="translate(187.039848, 249.640608)"><g><path d="M 11.910156 -40.632812 L 28.722656 -40.632812 L 28.722656 -8.40625 L 37.132812 -8.40625 L 37.132812 -40.632812 L 28.722656 -40.632812 L 28.722656 -49.042969 L 11.910156 -49.042969 Z M 11.910156 -40.632812 L 3.503906 -40.632812 L 3.503906 -8.40625 L 11.910156 -8.40625 L 11.910156 0 L 28.722656 0 L 28.722656 -8.40625 L 11.910156 -8.40625 Z M 11.910156 -40.632812 "/></g></g></g><g fill="#3b1b72" fill-opacity="1"><g transform="translate(235.097382, 249.640608)"><g><path d="M 3.503906 -49.042969 L 3.503906 0 L 11.910156 0 L 11.910156 -32.226562 L 20.316406 -32.226562 L 20.316406 -23.820312 L 28.722656 -23.820312 L 28.722656 -32.226562 L 20.316406 -32.226562 L 20.316406 -40.632812 L 11.910156 -40.632812 L 11.910156 -49.042969 Z M 37.132812 -32.226562 L 37.132812 0 L 45.539062 0 L 45.539062 -49.042969 L 37.132812 -49.042969 L 37.132812 -40.632812 L 28.722656 -40.632812 L 28.722656 -32.226562 Z M 37.132812 -32.226562 "/></g></g></g></svg>