<svg xmlns="http://www.w3.org/2000/svg" xmlns:xlink="http://www.w3.org/1999/xlink" width="500" zoomAndPan="magnify" viewBox="0 0 375 374.999991" height="500" preserveAspectRatio="xMidYMid meet" version="1.0"><defs><g/></defs><g fill="#ff00ff" fill-opacity="1"><g transform="translate(-6.047544, 230.574352)"><g><path d="M 26.617188 -64.195312 L 7.828125 -64.195312 L 7.828125 -45.40625 L 26.617188 -45.40625 L 26.617188 -26.617188 L 45.40625 -26.617188 L 45.40625 -7.828125 L 64.195312 -7.828125 L 64.195312 -26.617188 L 45.40625 -26.617188 L 45.40625 -45.40625 L 26.617188 -45.40625 Z M 45.40625 -101.773438 L 45.40625 -82.984375 L 64.195312 -82.984375 L 64.195312 -101.773438 Z M 45.40625 -82.984375 L 26.617188 -82.984375 L 26.617188 -64.195312 L 45.40625 -64.195312 Z M 45.40625 -82.984375 "/></g></g></g><g fill="#ff00ff" fill-opacity="1"><g transform="translate(82.574249, 230.574352)"><g><path d="M 26.617188 -90.816406 L 64.195312 -90.816406 L 64.195312 -18.789062 L 82.984375 -18.789062 L 82.984375 -90.816406 L 64.195312 -90.816406 L 64.195312 -109.605469 L 7.828125 -109.605469 L 7.828125 0 L 64.195312 0 L 64.195312 -18.789062 L 26.617188 -18.789062 Z M 26.617188 -90.816406 "/></g></g></g><g fill="#ff00ff" fill-opacity="1"><g transform="translate(189.984929, 230.574352)"><g><path d="M 26.617188 -90.816406 L 64.195312 -90.816406 L 64.195312 -64.195312 L 82.984375 -64.195312 L 82.984375 -90.816406 L 64.195312 -90.816406 L 64.195312 -109.605469 L 7.828125 -109.605469 L 7.828125 0 L 26.617188 0 L 26.617188 -45.40625 L 64.195312 -45.40625 L 64.195312 0 L 82.984375 0 L 82.984375 -45.40625 L 64.195312 -45.40625 L 64.195312 -64.195312 L 26.617188 -64.195312 Z M 26.617188 -90.816406 "/></g></g></g><g fill="#ff00ff" fill-opacity="1"><g transform="translate(297.39562, 230.574352)"><g><path d="M 7.828125 -101.773438 L 7.828125 -82.984375 L 26.617188 -82.984375 L 26.617188 -64.195312 L 45.40625 -64.195312 L 45.40625 -45.40625 L 64.195312 -45.40625 L 64.195312 -64.195312 L 45.40625 -64.195312 L 45.40625 -82.984375 L 26.617188 -82.984375 L 26.617188 -101.773438 Z M 7.828125 -26.617188 L 7.828125 -7.828125 L 26.617188 -7.828125 L 26.617188 -26.617188 Z M 26.617188 -45.40625 L 26.617188 -26.617188 L 45.40625 -26.617188 L 45.40625 -45.40625 Z M 26.617188 -45.40625 "/></g></g></g><g fill="#00ffff" fill-opacity="1"><g transform="translate(5.727105, 233.510104)"><g><path d="M 26.617188 -64.195312 L 7.828125 -64.195312 L 7.828125 -45.40625 L 26.617188 -45.40625 L 26.617188 -26.617188 L 45.40625 -26.617188 L 45.40625 -7.828125 L 64.195312 -7.828125 L 64.195312 -26.617188 L 45.40625 -26.617188 L 45.40625 -45.40625 L 26.617188 -45.40625 Z M 45.40625 -101.773438 L 45.40625 -82.984375 L 64.195312 -82.984375 L 64.195312 -101.773438 Z M 45.40625 -82.984375 L 26.617188 -82.984375 L 26.617188 -64.195312 L 45.40625 -64.195312 Z M 45.40625 -82.984375 "/></g></g></g><g fill="#00ffff" fill-opacity="1"><g transform="translate(94.348898, 233.510104)"><g><path d="M 26.617188 -90.816406 L 64.195312 -90.816406 L 64.195312 -18.789062 L 82.984375 -18.789062 L 82.984375 -90.816406 L 64.195312 -90.816406 L 64.195312 -109.605469 L 7.828125 -109.605469 L 7.828125 0 L 64.195312 0 L 64.195312 -18.789062 L 26.617188 -18.789062 Z M 26.617188 -90.816406 "/></g></g></g><g fill="#00ffff" fill-opacity="1"><g transform="translate(201.759578, 233.510104)"><g><path d="M 26.617188 -90.816406 L 64.195312 -90.816406 L 64.195312 -64.195312 L 82.984375 -64.195312 L 82.984375 -90.816406 L 64.195312 -90.816406 L 64.195312 -109.605469 L 7.828125 -109.605469 L 7.828125 0 L 26.617188 0 L 26.617188 -45.40625 L 64.195312 -45.40625 L 64.195312 0 L 82.984375 0 L 82.984375 -45.40625 L 64.195312 -45.40625 L 64.195312 -64.195312 L 26.617188 -64.195312 Z M 26.617188 -90.816406 "/></g></g></g><g fill="#00ffff" fill-opacity="1"><g transform="translate(309.170269, 233.510104)"><g><path d="M 7.828125 -101.773438 L 7.828125 -82.984375 L 26.617188 -82.984375 L 26.617188 -64.195312 L 45.40625 -64.195312 L 45.40625 -45.40625 L 64.195312 -45.40625 L 64.195312 -64.195312 L 45.40625 -64.195312 L 45.40625 -82.984375 L 26.617188 -82.984375 L 26.617188 -101.773438 Z M 7.828125 -26.617188 L 7.828125 -7.828125 L 26.617188 -7.828125 L 26.617188 -26.617188 Z M 26.617188 -45.40625 L 26.617188 -26.617188 L 45.40625 -26.617188 L 45.40625 -45.40625 Z M 26.617188 -45.40625 "/></g></g></g><g fill="#ffffff" fill-opacity="1"><g transform="translate(-0.16022, 232.042228)"><g><path d="M 26.617188 -64.195312 L 7.828125 -64.195312 L 7.828125 -45.40625 L 26.617188 -45.40625 L 26.617188 -26.617188 L 45.40625 -26.617188 L 45.40625 -7.828125 L 64.195312 -7.828125 L 64.195312 -26.617188 L 45.40625 -26.617188 L 45.40625 -45.40625 L 26.617188 -45.40625 Z M 45.40625 -101.773438 L 45.40625 -82.984375 L 64.195312 -82.984375 L 64.195312 -101.773438 Z M 45.40625 -82.984375 L 26.617188 -82.984375 L 26.617188 -64.195312 L 45.40625 -64.195312 Z M 45.40625 -82.984375 "/></g></g></g><g fill="#ffffff" fill-opacity="1"><g transform="translate(88.461574, 232.042228)"><g><path d="M 26.617188 -90.816406 L 64.195312 -90.816406 L 64.195312 -18.789062 L 82.984375 -18.789062 L 82.984375 -90.816406 L 64.195312 -90.816406 L 64.195312 -109.605469 L 7.828125 -109.605469 L 7.828125 0 L 64.195312 0 L 64.195312 -18.789062 L 26.617188 -18.789062 Z M 26.617188 -90.816406 "/></g></g></g><g fill="#ffffff" fill-opacity="1"><g transform="translate(195.872253, 232.042228)"><g><path d="M 26.617188 -90.816406 L 64.195312 -90.816406 L 64.195312 -64.195312 L 82.984375 -64.195312 L 82.984375 -90.816406 L 64.195312 -90.816406 L 64.195312 -109.605469 L 7.828125 -109.605469 L 7.828125 0 L 26.617188 0 L 26.617188 -45.40625 L 64.195312 -45.40625 L 64.195312 0 L 82.984375 0 L 82.984375 -45.40625 L 64.195312 -45.40625 L 64.195312 -64.195312 L 26.617188 -64.195312 Z M 26.617188 -90.816406 "/></g></g></g><g fill="#ffffff" fill-opacity="1"><g transform="translate(303.282944, 232.042228)"><g><path d="M 7.828125 -101.773438 L 7.828125 -82.984375 L 26.617188 -82.984375 L 26.617188 -64.195312 L 45.40625 -64.195312 L 45.40625 -45.40625 L 64.195312 -45.40625 L 64.195312 -64.195312 L 45.40625 -64.195312 L 45.40625 -82.984375 L 26.617188 -82.984375 L 26.617188 -101.773438 Z M 7.828125 -26.617188 L 7.828125 -7.828125 L 26.617188 -7.828125 L 26.617188 -26.617188 Z M 26.617188 -45.40625 L 26.617188 -26.617188 L 45.40625 -26.617188 L 45.40625 -45.40625 Z M 26.617188 -45.40625 "/></g></g></g></svg>